# xmcd
# 
# Track frame offsets:
#     150
#     13623
#     36931
#     52108
#     66937
#     88680
#     102521
#     120757
#     137184
#     151468
#     164886
#     180107
#     195208
#     215460
#     231983
#     246281
# 
# Disc length: 3650
# 
# Revision: 0
# Processed by: cddbd v1.5.2PL0 Copyright (c) Steve Scherf et al.
# Submitted via: BonkEnc v1.0
# 
DISCID=dc0e4010
DTITLE=Eric Clapton - From The Cradle
DYEAR=2004
DGENRE=Blues
TTITLE0=Blues Before Sunrise
TTITLE1=Third Degree
TTITLE2=Reconsider Baby
TTITLE3=Hoochie Coochie Man
TTITLE4=Five Long Years
TTITLE5=I' m Tore Down
TTITLE6=How Long Blues
TTITLE7=Goin' Away Baby
TTITLE8=Blues Leave Me Alone
TTITLE9=Sinner's Prayer
TTITLE10=Motherless Child
TTITLE11=It Hurts Me Too
TTITLE12=Someday After A While
TTITLE13=Standin'Round Crying
TTITLE14=Driftin '
TTITLE15=Groaning The Blus
EXTD=
EXTT0=
EXTT1=
EXTT2=
EXTT3=
EXTT4=
EXTT5=
EXTT6=
EXTT7=
EXTT8=
EXTT9=
EXTT10=
EXTT11=
EXTT12=
EXTT13=
EXTT14=
EXTT15=
PLAYORDER=
